<svg width="450" height="86" viewBox="0 0 450 86" fill="none" xmlns="http://www.w3.org/2000/svg">
<path d="M28.9856 64.8033C29.1888 64.6008 29.392 64.6008 29.392 64.3983C31.0177 61.3607 32.6434 58.5255 34.4723 55.4879C39.1462 46.9824 44.0234 38.2745 48.6973 29.769L49.1037 29.1615L52.5583 31.1866L29.392 64.8033C29.7984 65.0059 29.7984 64.8033 30.0016 64.6008L35.082 57.513L53.3712 31.9967C53.3712 31.7941 53.5744 31.7941 53.5744 31.5916C54.184 31.7941 54.5905 32.1992 54.7937 32.6042C54.9969 33.0092 54.9969 33.4142 55.2001 33.8193C55.4033 34.2243 55.4033 34.6293 54.9969 34.8318L30.2049 64.6008L29.7984 65.0059C31.4241 65.8159 32.4402 67.2335 32.4402 69.0561C32.4402 70.6761 31.8306 72.2962 30.8145 73.5113L31.0177 73.7138C31.4241 73.5113 31.8306 73.3088 32.0338 72.9038C34.0659 70.8787 34.0659 67.6385 32.237 65.4109C32.0338 65.2084 31.8306 65.0059 31.6273 64.8033C33.8627 62.7782 37.1141 62.5757 39.7559 64.1958C41.5848 65.2084 42.8041 67.031 43.0073 69.0561C43.4137 71.0812 42.8041 72.9038 41.788 74.5238C41.9912 74.3213 42.1944 74.1188 42.3977 73.9163C43.4137 72.9038 44.0234 71.4862 44.2266 70.0686C44.2266 69.6636 44.4298 69.4611 44.8362 69.4611C47.6812 69.2586 50.1198 71.2837 50.5262 74.1188C50.5262 74.3213 50.5262 74.3213 50.5262 74.5238C50.5262 75.5364 50.5262 76.549 50.5262 77.5615C51.1358 76.954 51.5423 76.1439 51.5423 75.1314C51.5423 74.7264 51.5423 74.1188 51.5423 73.7138C51.5423 73.3088 51.7455 73.1063 51.9487 72.9038C53.168 72.0937 54.7937 72.2962 56.013 73.3088C56.6226 73.9163 57.2322 74.5238 57.8419 75.3339C57.8419 74.3213 57.4355 73.3088 56.8258 72.4987C56.6226 72.2962 56.4194 71.8912 56.6226 71.4862C57.4355 68.651 60.4837 66.8284 63.5319 67.841C64.9543 68.246 66.1736 69.2586 66.7833 70.6761L66.9865 71.2837C80.6018 63.7908 88.5271 49.21 87.7142 33.8193C91.9817 57.7155 76.1311 80.8017 51.9487 85.0544C27.7663 89.3071 5.00639 73.7138 0.738911 49.6151C-3.12214 28.959 8.46102 8.50545 28.1727 0.810059C17.1992 6.68286 9.6803 17.2134 7.44495 29.364C7.03853 31.1866 7.03853 33.2117 6.83531 35.0343C6.83531 35.2368 6.83531 35.6418 7.24174 35.6418C9.88351 36.6544 11.1028 39.6921 10.0867 42.1222C9.6803 42.9322 9.27387 43.7423 8.46102 44.1473L7.85138 44.5523C8.46102 44.3498 9.07066 44.1473 9.6803 43.5398C9.88352 43.3372 10.0867 43.3372 10.2899 43.3372C12.3221 43.5398 14.151 44.7548 14.9639 46.7799C15.7767 48.6025 15.3703 50.8301 13.9478 52.4502C12.9317 53.6653 11.7124 54.6778 10.2899 55.2854V55.4879C10.6964 55.4879 11.306 55.2854 11.7124 55.0828C12.5253 54.8803 13.1349 54.2728 13.7446 54.0703C13.9478 54.0703 14.151 54.0703 14.5574 54.0703C15.7767 54.6778 16.5896 55.8929 16.5896 57.1079V57.513C17.4024 57.108 18.4185 56.9054 19.2313 56.5004C23.0924 55.6904 26.9534 58.323 27.7663 62.1707C27.7663 62.3732 27.7663 62.5757 27.9695 62.9808C27.9695 63.1833 27.9695 63.3858 27.5631 63.5883C26.1406 63.9933 25.1245 65.0059 24.5149 66.2209L24.9213 65.8159C25.7342 65.0059 26.9534 64.3983 28.1727 64.3983C28.5791 64.3983 28.7824 64.1958 28.9856 63.9933L44.4298 28.959C44.633 28.554 44.8362 28.3515 45.2426 28.3515C46.0555 28.3515 46.8684 28.149 47.8844 27.9465L28.9856 64.8033Z" fill="white"/>
<path d="M69.6282 6.88535C69.6282 11.7456 68.0025 16.6059 65.1575 20.6561C62.719 24.3013 59.6708 27.3389 56.0129 29.9715C55.8097 29.9715 55.6065 29.9715 55.4033 29.9715C53.168 28.7565 51.1358 27.5414 48.9005 26.3264C48.6973 26.3264 48.6973 26.1238 48.6973 25.9213C49.1037 18.8335 51.7455 12.1506 56.0129 6.68284C58.8579 3.24017 62.9222 0.810042 67.3929 0C67.7993 0 68.0025 3.01764e-08 68.2057 0.405021C69.2218 2.43013 69.6282 4.45523 69.6282 6.88535ZM64.5479 14.3782C64.5479 11.9481 62.5158 9.92301 60.0772 9.92301C57.6387 9.92301 55.6065 11.9481 55.6065 14.3782C55.6065 16.8084 57.6387 18.8335 60.0772 18.8335C62.5158 19.036 64.5479 17.0109 64.5479 14.3782ZM66.1736 11.1381C67.3929 9.92301 67.5961 8.30293 66.9865 6.88535C66.3768 5.26527 64.7511 4.25272 62.9222 4.45523C61.4997 4.65774 60.0772 5.67029 59.6708 7.08786C61.4997 5.46778 63.3286 5.06276 64.7511 6.07531C66.58 6.88535 66.9865 8.30293 66.1736 11.1381ZM57.029 20.4536C56.8258 20.251 56.8258 20.0485 56.8258 20.0485C56.6226 20.0485 56.6226 20.0485 56.4194 20.0485L56.2162 20.251C55.2001 22.0736 54.184 23.8962 53.168 25.7188V25.9213C53.168 26.1238 53.168 26.3264 53.3712 26.5289C53.3712 26.5289 53.7776 26.5289 53.7776 26.3264C53.7776 26.1238 53.9808 26.1238 53.9808 26.1238L56.8258 20.8586C56.8258 20.8586 56.8258 20.6561 57.029 20.4536Z" fill="white"/>
<path d="M63.1255 24.5038C63.7351 25.7188 64.1415 27.1364 64.1415 28.3515C64.1415 28.959 63.9383 29.5665 63.7351 30.1741C62.5158 32.6042 61.0933 35.0343 59.6708 37.4645L59.4676 37.0594C58.6548 35.0343 57.8419 32.8067 57.0291 30.7816C57.0291 30.5791 56.8259 30.3766 57.2323 30.1741C59.4676 28.3515 61.2966 26.5289 63.1255 24.5038Z" fill="white"/>
<path d="M47.8845 25.1113L40.3656 26.3263L40.5688 25.7188C41.7881 23.6937 43.0074 21.6686 44.0234 19.6435C44.6331 18.2259 46.0556 17.2134 47.6813 17.0109C48.2909 16.8083 48.9006 16.8083 49.7134 16.6058L47.8845 25.1113Z" fill="white"/>
<path d="M26.9534 44.1472H27.5631L27.3599 43.5397C27.7663 43.5397 28.1727 43.9447 28.1727 44.5522C28.7824 44.3497 28.7824 44.3497 29.1888 44.9572L29.392 45.7673C29.7984 46.9824 29.392 47.5899 28.1727 47.7924C27.5631 47.7924 26.9534 48.1974 26.3438 47.7924C26.1406 47.5899 25.9374 47.5899 26.1406 47.1849C25.7342 47.1849 25.5309 47.1849 25.9374 47.5899C26.3438 47.9949 26.7502 48.1974 27.3599 48.1974C27.7663 48.1974 27.9695 48.1974 28.3759 48.1974V48.3999C27.5631 48.6024 26.547 49.0075 25.7342 49.21C24.7181 49.4125 23.9052 49.21 22.8892 48.8049L24.7181 48.6024C23.702 48.6024 22.4827 48.6024 21.4667 48.1974C21.2635 48.1974 21.0602 47.9949 21.0602 47.9949C20.857 47.7924 20.857 47.5899 21.0602 47.3874C21.6699 46.9823 22.4827 46.7798 23.0924 46.9823L24.7181 47.3874C24.9213 46.3748 24.3117 45.7673 23.9052 44.9572L26.3438 44.3497H26.547L26.9534 44.1472Z" fill="white"/>
<path d="M41.9912 60.7531C41.9912 60.7531 42.1944 60.5506 42.3977 60.5506C42.6009 60.5506 42.8041 60.5506 43.0073 60.5506C42.1944 60.5506 41.3816 60.5506 40.5687 59.943C40.9752 59.3355 41.5848 59.3355 41.9912 59.3355H40.9752C40.7719 58.9305 40.7719 58.728 40.5687 58.3229C40.3655 57.9179 40.5687 57.3104 40.9752 57.1079C41.3816 56.7029 41.3816 56.2978 40.9752 55.8928L41.788 55.4878L41.9912 56.9054C42.1944 56.7029 42.3977 56.5003 42.8041 56.5003C43.4137 56.0953 44.2266 56.2978 44.633 56.9054C44.8362 57.3104 45.2426 57.7154 45.8523 57.7154C46.0555 58.1204 46.2587 58.728 46.2587 59.3355C46.2587 59.7405 45.8523 60.1455 45.2426 60.1455L45.4459 60.5506C44.4298 60.7531 43.4137 61.5631 42.1944 60.9556C42.3977 60.7531 41.9912 60.7531 41.9912 60.7531ZM43.4137 56.7029C43.2105 56.9054 43.0073 57.3104 42.8041 57.5129C42.8041 57.5129 42.8041 57.7154 43.0073 57.9179L44.4298 57.5129L43.4137 56.7029ZM44.2266 59.943L44.633 59.538H43.4137V58.9305L43.0073 59.538L44.2266 59.943Z" fill="white"/>
<path d="M70.2379 54.2728C70.2379 54.2728 70.4411 54.0703 70.4411 53.8678C71.254 53.6653 72.2701 53.4627 73.0829 53.2602C73.2861 53.2602 73.4893 53.2602 73.6925 53.2602L73.4893 52.4502C73.8958 52.6527 74.099 52.8552 74.3022 53.4627L74.9118 53.2602C75.115 54.0703 75.3183 54.6778 75.5215 55.4879C75.5215 56.2979 75.115 56.9054 74.3022 56.9054C73.8958 56.9054 73.6925 56.9054 73.2861 57.1079C72.6765 57.3104 72.2701 56.9054 72.0668 56.5004H72.4733H72.6765L72.8797 55.6904L72.4733 56.2979H70.8476C70.8476 55.4879 70.4411 54.8803 70.2379 54.2728Z" fill="white"/>
<path d="M70.2379 56.2979L71.4572 56.5004C71.6604 56.5004 71.8636 56.7029 71.8636 56.7029C72.27 57.108 72.8797 57.3105 73.4893 57.3105C73.6925 57.3105 74.0989 57.3105 74.3021 57.513C73.4893 57.7155 72.4732 58.1205 71.6604 58.323C70.6443 58.5255 69.6282 58.323 68.8154 57.918V57.7155H70.4411V57.513C70.0347 57.513 69.425 57.513 69.0186 57.513C68.409 57.513 67.5961 57.3105 66.9865 57.108C66.58 56.9054 66.58 56.7029 66.9865 56.2979C67.5961 55.8929 68.409 55.6904 69.0186 56.0954L70.2379 56.2979Z" fill="white"/>
<path d="M70.2379 56.2979C69.425 55.8929 68.409 55.6904 67.5961 55.8929C67.3929 55.2853 67.1897 54.6778 67.1897 54.0703C67.1897 53.2602 67.5961 52.4502 68.6122 52.2477L69.2218 54.2728L70.6443 56.2979H70.2379Z" fill="white"/>
<path d="M22.4827 43.3373C22.4827 43.5398 22.4827 43.9448 22.6859 44.1473C22.8891 45.1599 23.4988 46.1724 24.5148 46.78C24.7181 46.78 24.7181 46.9825 24.9213 47.185C23.702 46.9825 22.8891 46.3749 21.8731 46.78C21.6699 46.1724 21.4666 45.5649 21.4666 44.9574C21.0602 44.1473 21.6699 43.3373 22.4827 43.3373Z" fill="white"/>
<path d="M18.6217 26.5288C18.6217 26.3263 18.6217 26.1238 18.6217 26.1238C18.6217 26.1238 19.2313 25.9213 19.4346 26.1238C19.6378 26.5288 19.841 26.7313 20.0442 27.1364L20.2474 27.5414H20.4506L20.2474 26.7313C20.6538 26.9339 20.8571 26.9339 21.0603 27.1364C21.2635 27.3389 21.2635 27.7439 21.0603 28.1489C20.6538 28.7565 19.841 29.1615 19.0281 29.1615L18.6217 28.5539L18.8249 27.9464L19.4346 27.7439H18.8249H19.4346L18.6217 27.5414L18.8249 26.7313L18.6217 26.5288Z" fill="white"/>
<path d="M56.2161 54.2728C55.8097 54.2728 55.6065 54.0703 55.2001 54.0703C54.9968 54.0703 54.9968 53.6652 54.9968 53.6652C54.9968 53.6652 55.2001 53.2602 55.2001 53.0577C54.5904 52.8552 54.9968 52.4502 54.9968 52.0452C54.9968 51.8426 55.2001 51.4376 55.2001 51.4376C55.4033 51.4376 55.6065 51.4376 55.8097 51.6401C56.0129 52.0452 56.2161 52.4502 56.4193 52.6527V52.0452C56.6226 52.2477 57.029 52.2477 57.2322 52.4502C57.4354 52.6527 57.4354 53.0577 57.2322 53.2602L56.4193 54.0703L56.2161 54.2728Z" fill="white"/>
<path d="M69.0186 54.2729L68.409 52.2478C68.409 52.0452 68.2057 51.8427 68.409 51.6402C68.6122 51.4377 68.409 51.0327 67.7993 50.8302L69.2218 50.2227C69.425 51.0327 69.425 51.6402 69.425 52.4503C69.425 52.8553 69.425 53.0578 69.6282 53.0578L70.0347 53.4628L70.4411 54.2729L70.6443 55.0829L70.8475 55.6904L70.6443 55.893L69.6282 54.8804C69.425 54.6779 69.2218 54.4754 69.0186 54.2729Z" fill="white"/>
<path d="M22.4828 43.3372C22.4828 43.1347 22.2796 42.9322 22.2796 42.7297C22.2796 42.5272 22.2796 41.9197 21.6699 41.7172C22.0763 41.5146 22.4828 41.3121 22.686 41.3121C22.8892 41.3121 23.0924 41.3121 23.0924 41.5146C23.0924 42.1222 23.2956 42.7297 23.2956 43.3372C23.2956 43.3372 23.0924 43.5397 23.0924 43.7423L23.4988 43.9448V44.1473C23.9053 44.7548 24.1085 45.5649 24.5149 46.1724L24.7181 46.7799C23.7021 46.1724 22.8892 45.1598 22.686 43.9448C22.4828 43.7423 22.4828 43.5397 22.4828 43.3372Z" fill="white"/>
<path d="M23.4988 44.1472C23.2956 43.7422 23.4988 43.3372 23.9052 43.1347L24.3116 42.9322C25.1245 42.1221 26.3438 42.3246 27.1566 43.1347C27.3598 43.5397 27.5631 43.9447 27.5631 44.3498L27.1566 44.5523H26.7502L26.3438 43.5397C26.547 42.9322 26.1406 43.1347 25.7341 43.1347L25.9373 43.3372L25.5309 43.7422H25.3277V42.9322L25.1245 43.1347C24.7181 42.7297 24.5149 43.1347 24.3116 43.5397L23.702 44.3498L23.4988 44.1472Z" fill="white"/>
<path d="M69.8315 53.4627L69.4251 53.0577C69.2218 52.6527 69.4251 52.0452 69.8315 51.8427C70.4411 51.2351 71.0508 51.0326 71.8636 51.2351C72.6765 51.4376 73.2861 52.2477 73.4893 53.0577H73.0829L72.4733 52.0452L72.27 51.8427L71.6604 52.4502L71.4572 52.0452H71.0508C70.8476 52.0452 70.6443 52.2477 70.6443 52.4502C70.2379 52.8552 70.0347 53.2602 69.8315 53.4627Z" fill="white"/>
<path d="M32.237 28.959C32.237 28.7565 32.4402 28.554 32.4402 28.554C32.6434 28.554 32.8466 28.554 33.0498 28.7565C33.2531 28.959 33.4563 29.364 33.6595 29.5665V29.1615C33.8627 29.1615 34.0659 29.1615 34.2691 29.364C34.4723 29.5665 34.4723 29.769 34.4723 30.174C34.2691 30.5791 33.8627 30.7816 33.6595 31.1866H32.4402C32.0338 30.7816 32.0338 30.3765 32.4402 30.174L32.0338 29.9715H32.4402C32.237 29.9715 31.8306 29.769 32.0338 29.364L32.237 28.959Z" fill="white"/>
<path d="M56.2161 54.2728L56.6225 54.0703L57.4354 54.2728C57.2322 54.6778 57.029 55.0829 56.8258 55.4879C56.8258 55.6904 56.6225 55.6904 56.4193 55.6904C55.4033 55.8929 54.3872 55.4879 53.5743 54.6778L56.4193 55.0829L55.8097 54.6778L56.2161 54.2728Z" fill="white"/>
<path d="M54.9969 52.0451L54.7937 53.6652C54.3872 53.4627 53.9808 53.0577 53.7776 52.6527V53.0577L53.168 52.8552L53.7776 52.6527V52.4502H53.3712L53.5744 51.2351L54.9969 52.0451Z" fill="white"/>
<path d="M18.6217 26.5289C18.0121 27.1364 18.6217 27.9465 18.2153 28.554C17.6057 28.149 17.6057 28.3515 17.1992 27.1364L16.5896 26.9339L16.7928 25.7189L18.6217 26.5289Z" fill="white"/>
<path d="M33.4563 30.9841H34.4724C34.2691 31.9967 33.2531 32.4017 32.237 32.1992C31.8306 31.9967 31.4242 31.7942 31.2209 31.3892L32.237 31.5917L33.4563 31.7942C32.6434 31.1866 33.4563 31.1866 33.4563 30.9841Z" fill="white"/>
<path d="M32.2369 28.959V29.364L32.0337 30.5791H31.6273L31.4241 30.174L30.8145 29.9715L31.0177 29.5665C30.6112 29.1615 31.0177 28.7565 30.8145 28.3514L32.2369 28.959Z" fill="white"/>
<path d="M20.4506 29.9715C20.4506 30.5791 20.0442 30.5791 19.6378 30.5791C18.6217 30.5791 17.8089 30.1741 17.1992 29.364L20.2474 29.769L20.4506 29.9715Z" fill="white"/>
<path d="M16.5896 30.9841L17.4024 30.1741H17.6056C17.6056 30.3766 17.4024 30.5791 17.4024 30.7816L17.1992 31.3891C16.1832 32.1992 15.3703 33.2117 14.3542 34.2243C14.151 34.4268 13.7446 34.6293 13.5414 34.6293C14.7607 33.8193 15.9799 32.4017 16.5896 30.9841Z" fill="white"/>
<path d="M69.8315 53.4627C70.0348 53.0577 70.4412 52.8552 70.6444 52.4502C70.8476 52.2477 71.0508 52.2477 71.0508 52.0452L71.8637 53.0577C71.8637 53.0577 71.8637 53.2602 71.6605 53.2602C71.254 53.4627 70.6444 53.4627 70.238 53.6653C70.0348 53.8678 70.0348 53.6653 69.8315 53.4627Z" fill="white"/>
<path d="M23.9053 44.1473L24.5149 43.3373L24.9213 42.9323L25.9374 44.1473L23.9053 44.5523V44.1473Z" fill="white"/>
<path d="M53.3711 56.2978C53.1679 56.7029 52.7615 57.3104 52.3551 57.7154C51.7454 58.3229 51.1358 58.9305 50.5261 59.538C50.3229 59.7405 50.1197 59.7405 49.9165 59.7405C51.1358 58.728 52.1519 57.5129 52.9647 56.0953L53.5743 55.2853L53.3711 56.2978Z" fill="white"/>
<path d="M24.3116 51.4376C23.9052 50.6275 23.2955 50.2225 23.2955 49.21C23.4987 49.21 23.702 49.4125 24.1084 49.4125C24.5148 49.4125 24.5148 49.615 24.5148 49.8175C24.5148 50.02 24.3116 50.83 24.3116 51.4376Z" fill="white"/>
<path d="M70.2379 60.5506C69.6283 59.9431 69.425 59.133 69.425 58.323H70.0347C70.6443 58.5255 70.6443 58.5255 70.6443 59.133C70.6443 59.3355 70.6443 59.5381 70.6443 59.7406C70.6443 59.9431 70.6443 60.1456 70.6443 60.3481L70.2379 60.5506Z" fill="white"/>
<path d="M21.2634 49.8176L21.6699 49.21C22.0763 48.4 22.0763 48.4 22.8891 49.0075L23.0923 49.21C22.6859 49.8176 21.8731 49.6151 21.2634 49.8176Z" fill="white"/>
<path d="M69.2217 58.5255L67.3928 59.133C67.596 58.728 67.7992 58.323 68.0025 57.918C68.2057 57.918 68.2057 57.7155 68.4089 57.7155C68.6121 57.918 69.0185 57.918 69.2217 58.1205V58.5255Z" fill="white"/>
<path d="M17.8088 28.959L18.2152 29.364C17.8088 29.364 17.6056 29.364 17.1992 29.364C16.7927 29.1615 16.5895 28.959 16.1831 28.7564L16.5895 27.7439L16.996 27.9464L16.7927 28.1489L17.8088 28.959Z" fill="white"/>
<path d="M31.0177 32.4017C30.408 33.2118 29.5952 34.2243 28.9855 35.0344C28.7823 35.4394 28.3759 35.6419 27.9695 35.8444C28.9855 35.0344 29.7984 34.0218 30.408 32.8067L31.2209 31.7942C31.2209 31.9967 31.2209 32.1992 31.0177 32.4017Z" fill="white"/>
<path d="M53.9808 54.0703L54.5905 54.4753C53.7776 54.6778 53.168 54.2728 52.5583 53.8678L52.9648 53.0577L53.3712 53.2603V53.8678L53.5744 53.6653L53.9808 54.0703Z" fill="white"/>
<path d="M20.4506 29.9715H20.2474L19.4346 29.5665C20.0442 29.1615 20.4506 28.7565 21.0603 29.364L20.4506 29.9715Z" fill="white"/>
<path d="M19.0281 29.1615L19.2313 29.364L17.6056 28.9589C17.6056 28.7564 17.4024 28.3514 17.4024 28.1489C17.1992 27.9464 16.9959 27.7439 16.7927 27.5414L17.4024 27.1364C17.4024 28.1489 18.2152 28.9589 19.0281 29.1615Z" fill="white"/>
<path d="M31.4241 30.9841L31.8305 31.1866C31.2209 31.3891 30.6113 31.1866 30.2048 30.5791L30.6113 29.769C30.8145 29.9716 31.0177 29.9716 31.0177 29.9716C30.8145 30.5791 31.2209 30.7816 31.4241 30.9841Z" fill="white"/>
<path d="M23.2957 49.615L21.8732 51.6401C21.8732 50.6275 22.4828 50.02 23.2957 49.615Z" fill="white"/>
<path d="M69.2218 58.728L68.0025 60.5506C67.7993 60.1456 68.6122 59.133 69.2218 58.728Z" fill="white"/>
<path d="M42.8041 62.1706L42.1945 60.9556C43.2105 60.9556 43.2105 61.1581 42.8041 62.1706Z" fill="white"/>
<path d="M53.7776 53.0577L55.4033 54.6778L53.9808 54.2728C53.9808 53.6653 53.7776 53.2602 53.7776 53.0577Z" fill="white"/>
<path d="M16.9959 31.3891L17.1992 30.7816C17.4024 30.5791 17.6056 30.174 18.012 30.5791L16.7927 31.9966L16.9959 31.3891Z" fill="white"/>
<path d="M26.3439 43.5397L26.5471 44.1472L26.3439 44.3498L25.531 43.9447C25.9374 43.5397 25.9374 43.1347 26.3439 43.5397Z" fill="white"/>
<path d="M16.5895 30.9841C16.1831 31.3891 15.5734 31.3891 15.167 31.1866L16.7927 30.3766L16.5895 30.9841Z" fill="white"/>
<path d="M41.9913 60.7532L41.788 61.1582L40.772 61.3607L41.1784 60.5507L41.9913 60.7532Z" fill="white"/>
<path d="M18.4185 30.7816C19.6377 30.5791 19.0281 31.3891 19.4345 31.7942H19.2313L18.4185 30.7816Z" fill="white"/>
<path d="M53.3712 56.2979C53.5744 56.0954 53.5744 55.8929 53.7776 55.6904C53.9808 55.2854 53.9808 55.2854 54.3872 55.4879L53.168 56.7029L53.3712 56.2979Z" fill="white"/>
<path d="M52.9648 56.0953C52.5583 56.2978 52.1519 56.5003 51.7455 56.2978V56.0953L53.168 55.4878L52.9648 56.0953Z" fill="white"/>
<path d="M31.4241 29.9716L31.6274 30.3766L32.6434 30.9841L32.8466 31.1866L31.6274 30.7816C31.4241 30.5791 31.0177 30.3766 31.4241 29.9716Z" fill="white"/>
<path d="M67.5962 57.7155C67.1897 58.1205 66.3769 58.1205 65.9705 57.7155H67.5962Z" fill="white"/>
<path d="M21.4666 48.4C21.0602 48.805 20.2474 48.805 19.8409 48.4H21.4666Z" fill="white"/>
<path d="M72.4732 52.2477C72.4732 52.4502 72.4732 52.4502 72.6764 52.6527C72.6764 52.8552 72.6764 53.0577 72.6764 53.2602H72.0668V52.8552H72.6764L72.4732 52.2477Z" fill="white"/>
<path d="M53.3712 54.8804L51.9487 54.0703C52.5584 54.0703 53.168 54.2728 53.3712 54.8804Z" fill="white"/>
<path d="M15.5735 28.7565L16.996 29.5665L16.7928 29.769L15.5735 28.7565Z" fill="white"/>
<path d="M55.4033 56.7029L54.7937 55.6903C55.6066 55.8928 55.8098 56.0953 55.4033 56.7029Z" fill="white"/>
<path d="M31.0177 32.4017C31.2209 31.9967 31.2209 31.7941 31.6273 32.1992L30.8145 33.2117L31.0177 32.4017Z" fill="white"/>
<path d="M30.4081 32.8066H29.5952V32.6041L30.8145 31.9966L30.4081 32.8066Z" fill="white"/>
<path d="M32.0338 32.4016C32.6435 32.4016 32.8467 32.6041 32.6435 33.4142L32.0338 32.4016Z" fill="white"/>
<path d="M29.5952 30.7816L30.8145 31.3891L30.6113 31.5917L29.5952 30.7816Z" fill="white"/>
<path d="M41.788 61.1581H41.9912L41.1783 62.1706L41.788 61.1581Z" fill="white"/>
<path d="M71.0507 59.5381L70.6443 58.728H70.8475L71.0507 59.5381Z" fill="white"/>
<path d="M43.4137 56.7029L44.2265 57.5129L42.804 57.9179C42.804 57.7154 42.6008 57.5129 42.6008 57.5129C43.0073 57.3104 43.2105 57.1079 43.4137 56.7029Z" fill="white"/>
<path d="M56.4194 14.3783C56.2162 12.3532 57.8419 10.7331 59.6709 10.5306C61.4998 10.3281 63.3287 11.9482 63.5319 13.7708C63.5319 13.9733 63.5319 14.1758 63.5319 14.3783C63.3287 16.4034 61.703 17.821 59.6709 17.6185C57.8419 17.6185 56.4194 16.2009 56.4194 14.3783Z" fill="white"/>
<g clip-path="url(#clip0_17_1963)">
<path d="M133.635 22.7826C143.11 22.7826 147.058 28.5217 147.058 35.0435C147.321 40.7826 143.637 45.7391 138.373 47.5652L148.111 64H139.952L130.214 48.0869H119.422C118.896 48.0869 118.37 48.3478 118.37 48.8695V49.1304V64H111V47.5652C111 42.8695 113.106 41.0435 117.58 41.0435H133.898C136.793 41.3043 139.425 39.2174 139.689 36.3478C139.689 36.0869 139.689 35.5652 139.689 35.3043C139.689 32.4348 137.583 30.0869 134.688 29.8261C134.425 29.8261 134.161 29.8261 133.898 29.8261H111V22.7826H133.635Z" fill="white"/>
<path d="M183.38 22.7826C195.224 22.7826 202.067 29.5652 202.067 43.3913C202.067 57.2174 195.487 64 183.38 64H177.589C165.482 64 158.902 57.2174 158.902 43.3913C158.902 29.5652 165.745 22.7826 177.589 22.7826H183.38ZM177.589 29.8261C169.693 29.8261 166.009 34 166.009 43.3913C166.009 52.7826 169.43 56.6956 177.589 56.6956H183.38C191.276 56.6956 194.96 52.7826 194.96 43.3913C194.96 34 191.276 29.8261 183.38 29.8261H177.589Z" fill="white"/>
<path d="M248.916 22.7826V29.8261H227.597C223.912 29.8261 222.07 31.913 222.07 34.7826C222.07 37.6522 223.386 39.7391 228.123 39.7391H237.862C249.179 39.7391 251.811 46 251.811 52C251.811 59.0435 248.127 64 238.651 64H215.49V56.9565H238.915C242.863 56.9565 244.705 54.8695 244.705 51.7391C244.705 48.6087 243.389 46.5217 238.125 46.5217H228.387C217.332 46.5217 214.7 40.2609 214.7 34.5217C214.7 27.7391 218.385 22.7826 227.597 22.7826H248.916Z" fill="white"/>
<path d="M299.45 22.7826V29.8261H278.658C274.183 29.8261 272.341 31.913 272.341 35.0435C272.341 38.1739 274.446 40 278.658 40H299.187V46.5217H278.658C274.446 46.5217 272.341 48.0869 272.341 51.4782C272.341 54.8695 274.446 56.6956 278.658 56.6956H299.714V64H278.658C268.919 64 264.708 59.0435 264.708 52.7826C264.445 48.6087 266.814 44.9565 270.762 43.3913C267.077 41.8261 264.445 38.1739 264.971 34C264.971 27.4782 269.182 22.7826 278.921 22.7826H299.45Z" fill="white"/>
<path d="M336.298 22.7826C345.773 22.7826 349.721 28.5217 349.721 35.0435C350.248 41.8261 344.984 47.5652 338.141 48.0869C337.614 48.0869 336.824 48.0869 336.298 48.0869H323.401C322.875 48.0869 322.349 48.3478 322.349 48.8695V49.1304V64H314.979V47.5652C314.979 42.8695 317.085 41.0435 321.559 41.0435H336.561C339.456 41.3043 342.088 39.2174 342.352 36.3478C342.352 36.0869 342.352 35.5652 342.352 35.3043C342.615 32.4348 340.509 30.0869 337.614 29.8261C337.351 29.8261 337.088 29.8261 336.825 29.8261H315.242V22.7826H336.298Z" fill="white"/>
<path d="M362.881 64H354.722L369.461 27.2174C370.777 23.5652 374.462 21.4783 378.147 22C381.832 21.4783 385.516 23.5652 386.832 27.2174L400.782 63.7391H392.623L379.989 30.6087C379.726 29.8261 378.936 29.0435 377.884 29.3043C376.831 29.3043 376.041 29.8261 375.778 30.6087L362.881 64Z" fill="white"/>
<path d="M431.313 22.7826C443.42 22.7826 450 29.5652 450 43.3913C450 57.2174 443.42 64 431.313 64H416.574C414.995 64.2609 413.415 63.2174 413.152 61.6522C413.152 61.3913 413.152 61.1304 413.152 60.8695V26.1739C412.889 24.6087 413.942 23.0435 415.784 22.7826C416.047 22.7826 416.311 22.7826 416.574 22.7826H431.313ZM420.259 55.913C420.259 56.4348 420.522 56.6956 421.048 56.6956H431.05C439.209 56.6956 442.63 52.7826 442.63 43.1304C442.63 33.4782 439.209 29.8261 431.313 29.8261H421.311C420.785 29.8261 420.522 30.0869 420.522 30.6087L420.259 55.913Z" fill="white"/>
</g>
<defs>
<clipPath id="clip0_17_1963">
<rect width="339" height="42" fill="white" transform="translate(111 22)"/>
</clipPath>
</defs>
</svg>
