<svg width="83" height="83" viewBox="0 0 83 83" fill="none" xmlns="http://www.w3.org/2000/svg">
<path fill-rule="evenodd" clip-rule="evenodd" d="M12.3509 26.5477C12.3509 26.5477 15.9064 21.2835 17.7462 16.4305C19.5875 11.5776 19.7133 7.13587 19.7133 7.13587C19.7133 7.13587 24.9486 6.75095 30.7786 5.21702C36.6085 3.68294 43.0332 1 43.0332 1C43.0332 1 45.6927 2.44142 48.9671 3.65752C52.2415 4.87348 56.1308 5.86413 56.1308 5.86413L54.6869 25.4003L44.9211 40.9954L12.3509 26.5477Z" fill="#FE3342" stroke="black" stroke-width="2" stroke-miterlimit="10" stroke-linecap="round" stroke-linejoin="round"/>
<path fill-rule="evenodd" clip-rule="evenodd" d="M50.7977 8.85107C50.7977 8.85107 52.6794 9.73511 56.8776 10.6915C61.0758 11.6479 67.5904 12.6767 67.5904 12.6767C67.5904 12.6767 69.6367 17.0578 72.4935 20.8653C75.3503 24.6727 79.0159 27.9065 79.0159 27.9065C79.0159 27.9065 79.5593 32.9462 80.3046 37.043C81.0498 41.1396 82 44.2933 82 44.2933L60.6007 56.4143L43.943 42.4261L50.7977 8.85107Z" fill="#FE3342" stroke="black" stroke-width="2" stroke-miterlimit="10" stroke-linecap="round" stroke-linejoin="round"/>
<path fill-rule="evenodd" clip-rule="evenodd" d="M43.1574 41.3376L51.3814 37.9172C51.3814 37.9172 57.7563 39.2142 64.0195 39.7025C70.2826 40.1908 76.4324 39.8705 76.4324 39.8705L70.5667 56.3578L68.6788 68.6402C68.6788 68.6402 64.951 71.4995 62.2293 74.3035C59.5077 77.1074 57.5887 79.5725 57.5887 79.5725L43.1838 69.7968L41.8051 52.0904L43.1574 41.3376Z" fill="#FE3342" stroke="black" stroke-width="2" stroke-miterlimit="10" stroke-linecap="round" stroke-linejoin="round"/>
<path fill-rule="evenodd" clip-rule="evenodd" d="M43.086 41.5371L12.7997 48.8823C12.7997 48.8823 14.7932 53.7586 15.2589 59.2091C15.7247 64.6598 14.6628 70.6845 14.6628 70.6845C14.6628 70.6845 18.6203 71.1165 23.4706 73.9453C28.3224 76.7742 34.0654 82 34.0654 82C34.0654 82 38.7449 78.2703 43.8762 76.4038C49.006 74.5374 54.5875 74.5341 54.5875 74.5341L41.4666 51.8754L43.086 41.5371Z" fill="#FE3342" stroke="black" stroke-width="2" stroke-miterlimit="10" stroke-linecap="round" stroke-linejoin="round"/>
<path fill-rule="evenodd" clip-rule="evenodd" d="M43.7334 41.3275L24.618 20.1304C24.618 20.1304 19.8018 19.7478 15.7201 20.0828C11.6368 20.4178 8.28783 21.4706 8.28783 21.4706C8.28783 21.4706 7.26003 29.8332 5.43884 37.5876C3.6161 45.342 1 52.4882 1 52.4882C1 52.4882 7.66525 58.5367 7.92453 58.4793C8.18382 58.4222 12.7841 65.0023 12.7841 65.0023L32.0331 43.0093C32.0331 43.0093 43.6387 41.411 43.7334 41.3275Z" fill="#FE3342" stroke="black" stroke-width="2" stroke-miterlimit="10" stroke-linecap="round" stroke-linejoin="round"/>
<path fill-rule="evenodd" clip-rule="evenodd" d="M49.0479 32.8194C49.0479 32.8194 44.2783 27.6444 39.7619 23.7737C35.2454 19.9032 30.9804 17.3369 30.9804 17.3369C30.9804 17.3369 25.4982 19.3903 21.6789 24.3088C17.8611 29.2273 15.703 37.011 15.703 37.011L14.7264 50.6642C14.7264 50.6642 16.3613 53.0183 18.7895 55.1909C21.2193 57.3636 24.4425 59.3548 24.4425 59.3548L40.4698 48.6917L49.0479 32.8194Z" fill="#FE3342" stroke="black" stroke-width="2" stroke-miterlimit="10" stroke-linecap="round" stroke-linejoin="round"/>
<path fill-rule="evenodd" clip-rule="evenodd" d="M39.2945 42.8626L34.5374 19.0422L39.8473 13.2849C39.8473 13.2849 46.6879 14.5002 52.4558 16.9264C58.2237 19.3526 63.5646 23.4091 63.5646 23.4091C63.5646 23.4091 64.9138 27.2266 67.0889 30.7277C69.2641 34.2287 72.2653 37.4131 72.2653 37.4131C72.2653 37.4131 69.6181 42.8395 67.5221 45.6796C65.4261 48.5197 63.8813 48.7733 63.8813 48.7733L39.2945 42.8626Z" fill="#FE3342" stroke="black" stroke-width="2" stroke-miterlimit="10" stroke-linecap="round" stroke-linejoin="round"/>
<path fill-rule="evenodd" clip-rule="evenodd" d="M37.7482 42.6003C37.7482 42.6003 33.8154 44.3692 30.6637 48.5337C27.5104 52.6983 25.1396 59.2586 25.1396 59.2586C25.1396 59.2586 24.2779 61.655 24.9455 64.3539C25.6131 67.0527 27.81 70.0541 27.81 70.0541C27.81 70.0541 33.2332 69.4254 38.6813 69.909C44.1308 70.3926 49.6037 71.9887 49.6037 71.9887L55.5812 64.9307L37.7482 42.6003Z" fill="#FE3342" stroke="black" stroke-width="2" stroke-miterlimit="10" stroke-linecap="round" stroke-linejoin="round"/>
<path fill-rule="evenodd" clip-rule="evenodd" d="M37.1551 45.572C37.1551 45.572 39.0787 51.4412 43.5595 56.4703C48.0403 61.4995 55.0781 65.6883 55.0781 65.6883C55.0781 65.6883 58.1103 64.7389 60.936 60.1134C63.7602 55.4881 66.3779 47.1868 66.3779 47.1868C66.3779 47.1868 64.7321 43.1931 62.7339 39.1916C60.7358 35.1901 58.3867 31.1809 58.3867 31.1809L37.1551 45.572Z" fill="#FE3342" stroke="black" stroke-width="2" stroke-miterlimit="10" stroke-linecap="round" stroke-linejoin="round"/>
<path fill-rule="evenodd" clip-rule="evenodd" d="M28.9233 49.538L25.697 44.6111C25.697 44.6111 26.023 38.3669 28.0491 34.378C30.0737 30.3891 33.7968 28.6553 33.7968 28.6553C33.7968 28.6553 37.5292 29.7316 40.8751 29.9413C44.2224 30.1509 47.1832 29.4939 47.1832 29.4939C47.1832 29.4939 49.037 30.7894 49.6487 32.7313C50.2605 34.6731 49.6301 37.2615 49.6301 37.2615L45.4862 50.1343L28.9233 49.538Z" fill="#FE3342" stroke="black" stroke-width="2" stroke-miterlimit="10" stroke-linecap="round" stroke-linejoin="round"/>
<path fill-rule="evenodd" clip-rule="evenodd" d="M29.1763 50.9159C29.1763 50.9159 31.4804 43.347 36.5573 40.0128C41.6327 36.6786 49.4826 37.579 49.4826 37.579L53.6979 43.1277C53.6979 43.1277 50.9684 47.3796 49.6192 50.8752C48.27 54.3707 48.3026 57.1099 48.3026 57.1099C48.3026 57.1099 42.7925 58.6162 38.8288 58.9452C34.8634 59.274 32.4445 58.4255 32.4445 58.4255C32.4445 58.4255 31.4105 57.7943 30.5938 55.9169C29.7772 54.0396 29.1763 50.9159 29.1763 50.9159Z" fill="#FE3342" stroke="black" stroke-width="2" stroke-miterlimit="10" stroke-linecap="round" stroke-linejoin="round"/>
<path fill-rule="evenodd" clip-rule="evenodd" d="M36.4828 46.7325C36.4828 46.7325 36.3353 41.4572 38.8551 39.8503C41.375 38.2433 46.1927 38.8429 46.1927 38.8429C46.1927 38.8429 48.062 40.8671 48.0527 42.3338C48.0418 43.8003 46.6848 45.0798 46.6848 45.0798L38.2326 48.7684L36.4828 46.7325Z" fill="#FE3342" stroke="black" stroke-width="2" stroke-miterlimit="10" stroke-linecap="round" stroke-linejoin="round"/>
<path fill-rule="evenodd" clip-rule="evenodd" d="M42.2367 40.1896C40.4233 40.5657 38.9204 42.9204 39.2029 44.2211C39.4855 45.5218 41.951 45.842 43.367 45.3921C44.7845 44.9423 44.6572 43.671 44.5578 42.2745C44.4569 40.8781 44.0501 39.8135 42.2367 40.1896Z" fill="black" stroke="black" stroke-width="2" stroke-miterlimit="10" stroke-linecap="round" stroke-linejoin="round"/>
<path fill-rule="evenodd" clip-rule="evenodd" d="M37.0759 20.3485C37.0759 19.014 38.0354 17.6218 39.706 17.6218L37.0759 20.3485Z" fill="black"/>
<path d="M37.0759 20.3485C37.0759 19.014 38.0354 17.6218 39.706 17.6218" stroke="black" stroke-width="2" stroke-miterlimit="10" stroke-linecap="round" stroke-linejoin="round"/>
<path d="M44.2985 18.2546C46.0902 16.4435 58.9301 24.9217 58.9301 26.3797" stroke="black" stroke-width="2" stroke-miterlimit="10" stroke-linecap="round" stroke-linejoin="round"/>
<path d="M31.1326 22.1691C26.8086 17.8127 16.6873 34.4092 16.6873 37.8568" stroke="black" stroke-width="2" stroke-miterlimit="10" stroke-linecap="round" stroke-linejoin="round"/>
<path d="M25.3414 37.261C21.5283 38.5135 23.1352 58.8151 24.4549 58.8151" stroke="black" stroke-width="2" stroke-miterlimit="10" stroke-linecap="round" stroke-linejoin="round"/>
<path d="M28.442 62.0808C28.442 68.8921 39.1501 67.8097 44.8311 67.8097" stroke="black" stroke-width="2" stroke-miterlimit="10" stroke-linecap="round" stroke-linejoin="round"/>
<path d="M55.2722 73.9401C60.0123 78.6709 62.5026 65.2762 66.7769 62.408" stroke="black" stroke-width="2" stroke-miterlimit="10" stroke-linecap="round" stroke-linejoin="round"/>
<path d="M22.7083 71.3557C34.8541 71.278 27.3365 81.4129 39.2278 75.3649" stroke="black" stroke-width="2" stroke-miterlimit="10" stroke-linecap="round" stroke-linejoin="round"/>
<path d="M68.5158 38.4983C67.9165 38.4983 66.7908 42.0061 66.5083 42.5597" stroke="black" stroke-width="2" stroke-miterlimit="10" stroke-linecap="round" stroke-linejoin="round"/>
<path d="M52.4807 60.1247C58.5326 60.1247 56.7115 51.9523 62.9979 48.7546" stroke="black" stroke-width="2" stroke-miterlimit="10" stroke-linecap="round" stroke-linejoin="round"/>
<path d="M27.7744 10.3826C34.8324 12.7305 43.9678 3.70068 50.9374 7.17824" stroke="black" stroke-width="2" stroke-miterlimit="10" stroke-linecap="round" stroke-linejoin="round"/>
<path d="M57.7268 15.2119C63.1035 17.895 74.1796 26.6577 74.1796 32.6104" stroke="black" stroke-width="2" stroke-miterlimit="10" stroke-linecap="round" stroke-linejoin="round"/>
<path d="M8.27695 37.478C7.73199 39.8329 4.16881 51.2332 5.07241 51.6839" stroke="black" stroke-width="2" stroke-miterlimit="10" stroke-linecap="round" stroke-linejoin="round"/>
<path d="M7.27397 53.7222C7.51928 53.7206 9.77984 56.2475 10.1043 56.8969" stroke="black" stroke-width="2" stroke-miterlimit="10" stroke-linecap="round" stroke-linejoin="round"/>
<path d="M17.9154 64.3599C18.3206 65.9817 18.17 67.7542 18.17 69.4538" stroke="black" stroke-width="2" stroke-miterlimit="10" stroke-linecap="round" stroke-linejoin="round"/>
</svg>
